<?xml version="1.0" encoding="UTF-8"?>
<!DOCTYPE svg PUBLIC "-//W3C//DTD SVG 1.1//EN" "http://www.w3.org/Graphics/SVG/1.1/DTD/svg11.dtd">
<!-- Creator: CorelDRAW X7 -->
<svg xmlns="http://www.w3.org/2000/svg" xml:space="preserve" width="287px" height="70px" version="1.1" shape-rendering="geometricPrecision" text-rendering="geometricPrecision" image-rendering="optimizeQuality" fill-rule="evenodd" clip-rule="evenodd"
viewBox="0 0 287 70"
 xmlns:xlink="http://www.w3.org/1999/xlink">
 <g id="Layer_x0020_1">
  <metadata id="CorelCorpID_0Corel-Layer"/>
  <g id="_2852135596896">
   <path fill="#6C94EB" fill-rule="nonzero" d="M52 52l0 -35 8 0 0 35 -8 0zm-11 -29l0 -7 30 0 0 7 -30 0zm29 29l0 -25 8 0 0 25 -8 0zm8 -14l-3 -2c0,-3 1,-5 3,-7 1,-1 3,-2 6,-2 1,0 2,0 3,0 1,1 2,1 2,2l-4 6c0,-1 -1,-1 -1,-1 -1,0 -1,0 -2,0 -1,0 -2,0 -3,1 -1,1 -1,2 -1,3zm13 14l0 -25 8 0 0 25 -8 0zm4 -28c-1,0 -2,0 -3,-1 0,-1 -1,-2 -1,-3 0,-1 1,-2 1,-3 1,-1 2,-1 3,-1 2,0 3,0 3,1 1,1 1,2 1,3 0,1 0,2 -1,3 0,1 -1,1 -3,1zm19 28l0 -35 8 0 0 35 -8 0zm-11 -29l0 -7 30 0 0 7 -30 0zm29 29l0 -25 7 0 0 25 -7 0zm7 -14l-3 -2c1,-3 2,-5 3,-7 2,-1 4,-2 7,-2 1,0 2,0 3,0 0,1 1,1 2,2l-5 6c0,-1 0,-1 -1,-1 0,0 -1,0 -2,0 -1,0 -2,0 -3,1 0,1 -1,2 -1,3zm23 14c-2,0 -4,0 -6,-1 -1,-2 -3,-3 -4,-5 -1,-2 -1,-4 -1,-6 0,-3 0,-5 1,-7 1,-2 3,-3 4,-4 2,-2 4,-2 6,-2 2,0 4,0 5,1 1,0 2,1 3,2 1,2 1,3 1,4l0 11c0,1 0,2 -1,4 -1,1 -2,2 -3,2 -1,1 -3,1 -5,1zm2 -7c2,0 3,0 4,-1 1,-1 1,-3 1,-4 0,-2 0,-3 0,-3 -1,-1 -1,-2 -2,-2 -1,-1 -2,-1 -3,-1 -1,0 -2,0 -3,1 -1,0 -1,1 -2,2 0,0 0,1 0,3 0,1 0,2 0,2 1,1 1,2 2,3 1,0 2,0 3,0zm5 7l0 -7 1 -6 -1 -6 0 -6 8 0 0 25 -8 0zm21 0l-11 -25 9 0 7 21 -4 0 7 -21 8 0 -10 25 -6 0zm30 0c-2,0 -5,0 -7,-1 -2,-1 -3,-3 -5,-5 -1,-2 -1,-4 -1,-6 0,-3 0,-5 1,-7 1,-2 3,-3 5,-5 2,-1 4,-1 7,-1 2,0 4,0 6,1 2,1 3,3 4,5 1,2 2,4 2,6 0,0 0,1 0,1 0,1 0,1 0,2l-21 0 0 -5 17 0 -3 2c0,-1 0,-3 -1,-3 0,-1 -1,-2 -1,-3 -1,0 -2,0 -3,0 -1,0 -3,0 -3,1 -1,0 -2,1 -2,2 -1,1 -1,2 -1,3 0,2 0,3 1,4 0,1 1,2 2,3 1,0 2,0 3,0 1,0 2,0 3,0 1,-1 2,-1 3,-2l4 4c-1,1 -2,2 -4,3 -2,1 -4,1 -6,1zm16 0l0 -37 7 0 0 37 -7 0z"/>
   <path fill="#07328F" d="M38 41c0,1 1,2 2,3 -1,-1 -3,-1 -3,-1 -1,0 -1,0 -1,-1 -1,1 -1,1 -1,1 -2,0 -6,0 -12,-1 1,3 3,6 4,9 -1,0 -4,-1 -5,-2 -1,0 -4,-4 -6,-7 -4,-1 -9,-2 -12,-2 -2,0 -5,-2 -4,-4 1,-2 4,-4 6,-4 3,0 9,1 15,3 1,-1 2,-1 3,-1 1,0 4,0 5,0 -1,1 -2,1 -3,2 2,1 4,1 5,1 2,1 6,-5 7,-5 2,0 3,0 5,0 -1,2 -3,6 -5,9z"/>
   <path fill="#07328F" fill-rule="nonzero" d="M263 70c-9,0 -134,-9 -224,-28 70,11 179,19 223,19 4,0 6,0 8,-1 3,-2 4,-3 6,-5 1,-2 2,-5 2,-8 0,-3 -1,-5 -2,-7 -2,-2 -3,-4 -6,-5 -2,-1 -5,-2 -8,-2 -1,0 -2,0 -4,1 -1,0 -2,0 -3,0l4 -5c1,-1 3,-1 4,-2 1,0 3,0 4,0 4,0 7,1 10,3 3,1 6,4 8,7 1,3 2,7 2,11 0,4 -1,8 -3,11 -2,4 -5,6 -9,8 -3,2 -8,3 -12,3zm-8 -36l0 -5 20 -24 11 0 -21 24 -10 5zm-11 -26l0 -8 42 0 0 5 -8 3 -34 0z"/>
  </g>
 </g>
</svg>
